<?xml version="1.0" encoding="UTF-8" standalone="no"?>
<svg
   xmlns:dc="http://purl.org/dc/elements/1.1/"
   xmlns:cc="http://creativecommons.org/ns#"
   xmlns:rdf="http://www.w3.org/1999/02/22-rdf-syntax-ns#"
   xmlns:svg="http://www.w3.org/2000/svg"
   xmlns="http://www.w3.org/2000/svg"
   xmlns:sodipodi="http://sodipodi.sourceforge.net/DTD/sodipodi-0.dtd"
   xmlns:inkscape="http://www.inkscape.org/namespaces/inkscape"
   version="1.0"
   width="3948.5pt"
   height="2003.4622pt"
   viewBox="0 0 3948.5 2003.4622"
   preserveAspectRatio="xMidYMid meet"
   id="svg3402"
   inkscape:version="0.91 r13725"
   sodipodi:docname="to-logo.svg">
  <defs
     id="defs3428" />
  <sodipodi:namedview
     pagecolor="#ffffff"
     bordercolor="#666666"
     borderopacity="1"
     objecttolerance="10"
     gridtolerance="10"
     guidetolerance="10"
     inkscape:pageopacity="0"
     inkscape:pageshadow="2"
     inkscape:window-width="1920"
     inkscape:window-height="1023"
     id="namedview3426"
     showgrid="false"
     fit-margin-top="0"
     fit-margin-left="0"
     fit-margin-right="0"
     fit-margin-bottom="0"
     inkscape:zoom="0.29910873"
     inkscape:cx="2501.875"
     inkscape:cy="1224.8041"
     inkscape:window-x="0"
     inkscape:window-y="0"
     inkscape:window-maximized="1"
     inkscape:current-layer="svg3402" />
  <metadata
     id="metadata3404">
Created by potrace 1.13, written by Peter Selinger 2001-2015
<rdf:RDF>
  <cc:Work
     rdf:about="">
    <dc:format>image/svg+xml</dc:format>
    <dc:type
       rdf:resource="http://purl.org/dc/dcmitype/StillImage" />
    <dc:title></dc:title>
  </cc:Work>
</rdf:RDF>
</metadata>
  <g
     transform="matrix(0.1,0,0,-0.1,-124.5,2145.6189)"
     id="g3406"
     style="fill:#000000;stroke:none">
    <path
       d="m 5429,21449 c -965,-50 -1757,-378 -2360,-979 -691,-688 -1150,-1689 -1303,-2840 -38,-288 -42,-340 -22,-340 9,0 406,-47 883,-105 478,-58 874,-103 881,-100 8,3 12,26 12,67 1,238 88,733 180,1023 104,326 295,701 478,939 253,329 629,563 1057,656 174,37 294,51 510,57 236,7 379,-4 575,-43 608,-121 1101,-507 1394,-1092 146,-292 247,-630 311,-1039 110,-709 98,-1666 -31,-2378 -130,-720 -402,-1280 -782,-1610 -571,-498 -1529,-755 -2939,-791 l -273,-7 0,-808 0,-807 113,-6 c 61,-3 205,-8 319,-11 550,-14 1119,-88 1578,-206 741,-190 1305,-514 1653,-949 442,-553 684,-1344 747,-2444 13,-228 13,-792 0,-1006 -78,-1278 -429,-2213 -1088,-2901 -359,-375 -750,-593 -1191,-663 -272,-44 -672,-24 -1011,50 -1209,265 -1909,1288 -2075,3034 -9,91 -18,171 -20,178 -4,10 -187,12 -892,10 l -888,-3 3,-155 c 10,-540 111,-1151 274,-1660 416,-1294 1339,-2345 2458,-2798 484,-196 956,-288 1536,-299 476,-10 866,32 1279,137 806,204 1489,608 2117,1248 501,512 842,1082 1088,1822 187,559 289,1094 347,1810 22,274 25,1129 5,1375 -66,811 -216,1459 -484,2099 -75,178 -233,484 -320,621 -432,680 -1063,1169 -1903,1476 -117,43 -130,50 -133,73 -3,21 2,26 25,32 470,107 848,311 1201,649 218,208 449,510 627,819 307,535 514,1202 615,1976 56,432 80,993 62,1422 -28,652 -108,1124 -277,1633 -259,780 -678,1379 -1332,1902 -846,676 -1862,992 -3004,932 z"
       id="path3408"
       inkscape:connector-curvature="0" />
    <path
       d="m 17841,21450 c -1449,-90 -2513,-833 -3235,-2260 -574,-1134 -935,-2709 -1105,-4825 -120,-1481 -141,-3381 -56,-5010 133,-2547 525,-4445 1181,-5714 628,-1218 1535,-1942 2698,-2156 273,-50 397,-59 766,-60 360,0 474,9 750,56 1336,230 2347,1154 2978,2720 507,1258 815,2981 927,5194 32,630 37,838 42,1766 8,1456 -25,2384 -123,3469 -301,3333 -1100,5318 -2516,6250 -473,312 -1047,506 -1658,559 -170,15 -496,21 -649,11 z m 500,-1635 c 799,-106 1387,-694 1806,-1805 337,-897 557,-2338 648,-4255 64,-1349 66,-3166 5,-4530 -82,-1821 -276,-3216 -577,-4140 -358,-1098 -902,-1764 -1609,-1970 -279,-81 -612,-94 -902,-34 -729,150 -1287,748 -1676,1796 -257,695 -449,1724 -560,3003 -194,2225 -176,5491 39,7530 187,1768 517,2896 1057,3613 345,460 767,724 1262,791 134,18 375,19 507,1 z"
       id="path3410"
       inkscape:connector-curvature="0" />
    <path
       d="m 24655,7097 c -3,-7 -4,-149 -3,-317 l 3,-305 268,-3 267,-2 0,320 0,320 -265,0 c -205,0 -267,-3 -270,-13 z"
       id="path3412"
       inkscape:connector-curvature="0" />
    <path
       d="m 27021,5659 c -240,-30 -425,-121 -596,-294 -138,-139 -213,-272 -253,-449 -26,-115 -21,-327 11,-446 51,-195 143,-348 307,-510 118,-116 237,-205 535,-394 630,-402 775,-570 775,-901 0,-151 -35,-256 -123,-373 -108,-143 -264,-222 -436,-222 -207,1 -361,79 -489,249 -74,99 -138,215 -187,343 -21,53 -43,95 -49,93 -6,-2 -110,-25 -231,-50 -121,-25 -228,-48 -237,-51 -15,-5 -13,-18 24,-122 53,-153 121,-295 198,-412 79,-120 246,-288 345,-346 324,-189 812,-215 1142,-59 398,187 632,622 584,1089 -39,384 -236,677 -651,967 -58,41 -199,133 -314,204 -538,336 -676,495 -676,775 0,196 89,348 248,423 66,31 69,32 212,32 131,-1 152,-3 219,-28 144,-51 230,-133 315,-297 24,-47 59,-128 77,-180 18,-52 33,-96 35,-98 1,-2 93,24 205,58 112,34 212,63 222,66 25,8 22,36 -19,165 -134,425 -402,679 -796,754 -101,19 -302,26 -397,14 z"
       id="path3414"
       inkscape:connector-curvature="0" />
    <path
       d="m 30005,5663 c -527,-48 -850,-391 -989,-1051 -94,-445 -113,-1141 -46,-1669 90,-704 331,-1112 746,-1262 255,-93 579,-91 847,5 334,121 615,425 741,806 38,111 64,234 53,245 -6,6 -439,61 -488,63 -13,0 -21,-19 -34,-72 -24,-98 -71,-230 -108,-303 -126,-251 -282,-355 -530,-355 -340,0 -547,158 -641,490 -51,181 -71,366 -81,748 l -7,242 926,0 926,0 0,208 c 0,654 -103,1117 -325,1458 -211,325 -567,485 -990,447 z m 283,-468 c 166,-39 290,-150 362,-324 67,-164 108,-402 117,-693 l 6,-178 -648,0 -648,0 6,173 c 10,299 59,551 137,711 76,156 207,271 351,310 71,19 238,20 317,1 z"
       id="path3416"
       inkscape:connector-curvature="0" />
    <path
       d="m 33060,5659 c -102,-12 -213,-41 -302,-78 -276,-115 -514,-402 -632,-761 -39,-118 -78,-288 -67,-294 11,-7 483,-78 487,-73 2,2 15,46 28,99 63,248 193,468 333,564 94,64 161,86 283,92 127,5 196,-7 290,-54 125,-63 233,-210 275,-374 20,-76 34,-255 35,-421 l 0,-117 -97,-22 c -220,-50 -524,-160 -733,-265 -589,-295 -932,-695 -1001,-1165 -26,-180 -1,-421 62,-590 79,-213 262,-403 480,-497 161,-70 385,-105 535,-84 213,30 514,177 697,341 32,29 59,51 61,49 2,-2 11,-44 20,-94 10,-49 25,-120 33,-157 l 15,-68 280,0 c 263,0 280,1 273,18 -28,69 -47,137 -62,225 -15,92 -17,241 -23,1467 -6,1334 -7,1367 -27,1455 -57,246 -135,389 -295,541 -184,173 -417,257 -743,268 -71,3 -164,1 -205,-5 z m 651,-3260 c -237,-227 -445,-329 -670,-329 -237,1 -385,78 -474,248 -87,166 -99,416 -27,604 50,135 205,321 364,440 203,152 503,303 781,394 l 100,33 3,-657 3,-657 -80,-76 z"
       id="path3418"
       inkscape:connector-curvature="0" />
    <path
       d="m 24650,3640 0,-1950 270,0 270,0 0,1950 0,1950 -270,0 -270,0 0,-1950 z"
       id="path3420"
       inkscape:connector-curvature="0" />
    <path
       d="m 35463,3983 3,-1608 22,-98 c 68,-298 189,-472 397,-572 106,-52 175,-70 310,-86 125,-13 206,-6 317,31 198,66 437,221 631,409 l 57,55 0,-212 0,-212 255,0 255,0 0,1950 0,1950 -270,0 -270,0 0,-1521 0,-1522 -72,-84 c -168,-198 -361,-334 -538,-379 -44,-11 -92,-15 -156,-12 -78,3 -101,9 -156,36 -81,40 -131,93 -174,186 -72,157 -68,65 -72,1769 l -3,1527 -270,0 -270,0 4,-1607 z"
       id="path3422"
       inkscape:connector-curvature="0" />
    <path
       d="m 38260,5585 c 0,-3 200,-422 445,-932 245,-510 445,-932 445,-939 0,-6 -200,-462 -445,-1013 -245,-550 -445,-1003 -445,-1006 0,-3 125,-5 278,-5 l 277,0 324,753 c 178,413 327,755 330,759 4,4 164,-335 356,-752 l 350,-760 277,0 c 153,0 278,2 278,5 0,3 -221,456 -490,1007 -299,611 -489,1011 -487,1023 2,11 189,433 416,937 226,505 411,920 411,923 0,3 -125,5 -277,5 l -278,0 -280,-671 c -154,-369 -283,-673 -286,-675 -4,-2 -150,300 -325,671 l -319,675 -277,0 c -153,0 -278,-2 -278,-5 z"
       id="path3424"
       inkscape:connector-curvature="0" />
  </g>
</svg>
